<?xml version="1.0" encoding="UTF-8"?>
<svg width="1200pt" height="1200pt" version="1.1" viewBox="0 0 1200 1200" xmlns="http://www.w3.org/2000/svg">
 <g fill="#b1bcac">
  <path d="m788.28 429.12-260.16 260.04-116.4-116.4c-15-15-39.48-15-54.48 0s-15 39.48 0 54.48l143.64 143.64c7.5586 7.5586 17.398 11.281 27.238 11.281s19.68-3.7188 27.238-11.281l287.4-287.28c15-15 15-39.48 0-54.48-15.121-15.121-39.48-15.121-54.48 0z"/>
  <path d="m600 120c-264.72 0-480 215.28-480 480s215.28 480 480 480 480-215.28 480-480-215.28-480-480-480zm0 882.96c-222.12 0-402.96-180.72-402.96-402.96 0-222.24 180.84-402.96 402.96-402.96s402.96 180.72 402.96 402.96-180.84 402.96-402.96 402.96z"/>
 </g>
</svg>
